<svg xmlns="http://www.w3.org/2000/svg" viewBox="0 0 512 512" role="img" aria-labelledby="title desc">
  <title id="title">English Grammar Adventure Icon</title>
  <desc id="desc">Rounded app icon with book, stars, and EG initials.</desc>
  <defs>
    <linearGradient id="bg" x1="0" y1="0" x2="1" y2="1">
      <stop offset="0%" stop-color="#1a237e"/>
      <stop offset="100%" stop-color="#3949ab"/>
    </linearGradient>
    <linearGradient id="card" x1="0" y1="0" x2="1" y2="1">
      <stop offset="0%" stop-color="#ffffff"/>
      <stop offset="100%" stop-color="#e8efff"/>
    </linearGradient>
    <linearGradient id="book" x1="0" y1="0" x2="0" y2="1">
      <stop offset="0%" stop-color="#ffd54f"/>
      <stop offset="100%" stop-color="#ffb74d"/>
    </linearGradient>
  </defs>

  <rect x="24" y="24" width="464" height="464" rx="104" fill="url(#bg)"/>
  <circle cx="130" cy="132" r="40" fill="#ffffff" opacity="0.11"/>
  <circle cx="384" cy="96" r="26" fill="#ffffff" opacity="0.14"/>

  <rect x="96" y="108" width="320" height="296" rx="40" fill="url(#card)"/>

  <path d="M154 190c0-14 11-25 25-25h77v164h-77c-14 0-25 11-25 25V190z" fill="url(#book)"/>
  <path d="M358 190c0-14-11-25-25-25h-77v164h77c14 0 25 11 25 25V190z" fill="#ffe082"/>
  <rect x="252" y="165" width="8" height="164" fill="#f9a825"/>

  <text x="256" y="278" text-anchor="middle" font-size="74" font-family="Nunito, Arial, sans-serif" font-weight="900" fill="#1a237e">EG</text>

  <path d="M377 211l14 29 32 5-23 23 6 33-29-15-29 15 6-33-23-23 32-5z" fill="#fff176"/>
  <path d="M132 332l9 19 20 3-15 14 4 20-18-9-18 9 4-20-15-14 20-3z" fill="#ffecb3"/>
</svg>
